HIERARCHY
ROOT Hips
{
	OFFSET 0.00000 0.00000 0.00000
	CHANNELS 6 Xposition Yposition Zposition Zrotation Yrotation Xrotation 
	JOINT LHipJoint
	{
		OFFSET 0 0 0
		CHANNELS 3 Zrotation Yrotation Xrotation
		JOINT LeftUpLeg
		{
			OFFSET 1.64549 -1.70879 0.84566
			CHANNELS 3 Zrotation Yrotation Xrotation
			JOINT LeftLeg
			{
				OFFSET 2.24963 -6.18082 0.00000
				CHANNELS 3 Zrotation Yrotation Xrotation
				JOINT LeftFoot
				{
					OFFSET 2.71775 -7.46697 0.00000
					CHANNELS 3 Zrotation Yrotation Xrotation
					JOINT LeftToeBase
					{
						OFFSET 0.18768 -0.51564 2.24737
						CHANNELS 3 Zrotation Yrotation Xrotation
						End Site
						{
							OFFSET 0.00000 -0.00000 1.15935
						}
					}
				}
			}
		}
	}
	JOINT RHipJoint
	{
		OFFSET 0 0 0
		CHANNELS 3 Zrotation Yrotation Xrotation
		JOINT RightUpLeg
		{
			OFFSET -1.58830 -1.70879 0.84566
			CHANNELS 3 Zrotation Yrotation Xrotation
			JOINT RightLeg
			{
				OFFSET -2.25006 -6.18201 0.00000
				CHANNELS 3 Zrotation Yrotation Xrotation
				JOINT RightFoot
				{
					OFFSET -2.72829 -7.49593 0.00000
					CHANNELS 3 Zrotation Yrotation Xrotation
					JOINT RightToeBase
					{
						OFFSET -0.21541 -0.59185 2.10643
						CHANNELS 3 Zrotation Yrotation Xrotation
						End Site
						{
							OFFSET -0.00000 -0.00000 1.09838
						}
					}
				}
			}
		}
	}
	JOINT LowerBack
	{
		OFFSET 0 0 0
		CHANNELS 3 Zrotation Yrotation Xrotation
		JOINT Spine
		{
			OFFSET 0.03142 2.10496 -0.11038
			CHANNELS 3 Zrotation Yrotation Xrotation
			JOINT Spine1
			{
				OFFSET -0.01863 2.10897 -0.06956
				CHANNELS 3 Zrotation Yrotation Xrotation
				JOINT Neck
				{
					OFFSET 0 0 0
					CHANNELS 3 Zrotation Yrotation Xrotation
					JOINT Neck1
					{
						OFFSET -0.02267 1.73238 0.00451
						CHANNELS 3 Zrotation Yrotation Xrotation
						JOINT Head
						{
							OFFSET -0.05808 1.54724 -0.61749
							CHANNELS 3 Zrotation Yrotation Xrotation
							End Site
							{
								OFFSET -0.01396 1.71468 -0.21082
							}
						}
					}
				}
				JOINT LeftShoulder
				{
					OFFSET 0 0 0
					CHANNELS 3 Zrotation Yrotation Xrotation
					JOINT LeftArm
					{
						OFFSET 3.44898 0.50298 0.21920
						CHANNELS 3 Zrotation Yrotation Xrotation
						JOINT LeftForeArm
						{
							OFFSET 5.41917 -0.00000 -0.00000
							CHANNELS 3 Zrotation Yrotation Xrotation
							JOINT LeftHand
							{
								OFFSET 2.44373 -0.00000 0.00000
								CHANNELS 3 Zrotation Yrotation Xrotation
								JOINT LeftFingerBase
								{
									OFFSET 0 0 0
									CHANNELS 3 Zrotation Yrotation Xrotation
									JOINT LeftHandIndex1
									{
										OFFSET 0.72750 -0.00000 0.00000
										CHANNELS 3 Zrotation Yrotation Xrotation
										End Site
										{
											OFFSET 0.58653 -0.00000 0.00000
										}
									}
								}
								JOINT LThumb
								{
									OFFSET 0 0 0
									CHANNELS 3 Zrotation Yrotation Xrotation
									End Site
									{
										OFFSET 0.59549 -0.00000 0.59549
									}
								}
							}
						}
					}
				}
				JOINT RightShoulder
				{
					OFFSET 0 0 0
					CHANNELS 3 Zrotation Yrotation Xrotation
					JOINT RightArm
					{
						OFFSET -3.23015 0.55830 0.31051
						CHANNELS 3 Zrotation Yrotation Xrotation
						JOINT RightForeArm
						{
							OFFSET -5.58976 -0.00010 0.00014
							CHANNELS 3 Zrotation Yrotation Xrotation
							JOINT RightHand
							{
								OFFSET -2.48060 -0.00000 0.00000
								CHANNELS 3 Zrotation Yrotation Xrotation
								JOINT RightFingerBase
								{
									OFFSET 0 0 0
									CHANNELS 3 Zrotation Yrotation Xrotation
									JOINT RightHandIndex1
									{
										OFFSET -0.81601 -0.00000 0.00000
										CHANNELS 3 Zrotation Yrotation Xrotation
										End Site
										{
											OFFSET -0.65789 -0.00000 0.00000
										}
									}
								}
								JOINT RThumb
								{
									OFFSET 0 0 0
									CHANNELS 3 Zrotation Yrotation Xrotation
									End Site
									{
										OFFSET -0.66793 -0.00000 0.66793
									}
								}
							}
						}
					}
				}
			}
		}
	}
}
MOTION
Frames: 12
Frame Time: 0.0238095
0.00 0.00 0.00 0 0 0 0 0 0 -21 0 0 0 0 0 0 0 0 0 0 0 0 0 0 21 0 0 0 0 0 0 0 0 0 0 0 0 0 0 0 0 0 0 0 0 0 0 -16 0 0 21 0 0 11 0 0 0 -8 0 0 0 0 0 0 0 0 0 0 0 0 0 0 0 0 0 0 0 0 8 0 0 0 0 0 0 0 0 0 0 0 0 0 0 0 0 0
0.00 0.00 0.00 -0.1860 8.4751 31.1681 0.0000 0.0000 0.0000 -24.3690 -7.1600 -9.5886 2.6349 10.0792 29.2334 -6.7148 40.8378 -11.7778 3.1095 10.8702 31.8433 0.0000 0.0000 0.0000 20.5523 21.1233 -52.2372 -4.4433 -12.7280 38.3586 -8.2109 -14.7688 -59.4240 -6.0914 -14.5163 45.3475 5.6028 -3.8433 -16.3400 4.5012 -5.6734 -12.4279 0.9590 -3.0636 -4.2955 -1.5030 -2.0220 -20.5440 -1.2472 -2.0964 36.1618 -0.7078 -1.2882 16.4564 0.0000 0.0000 0.0000 4.9838 -41.0312 -2.4453 31.9541 -42.5106 -12.7098 -0.0000 -0.0000 2.9052 -23.0671 11.1304 -4.6996 -7.1250 0.0000 -0.0000 -40.7057 37.5894 9.4410 0.0000 0.0000 0.0000 22.2473 -2.6819 -3.8933 -14.8508 23.9378 -3.1652 0.0000 -0.0000 -2.7898 13.9430 6.9930 1.7313 7.1250 -0.0000 -0.0000 28.6632 -22.6542 17.6907
0.00 0.00 0.00 -1.3629 5.4826 34.7265 0.0000 0.0000 0.0000 -23.1598 -8.9158 -10.5670 2.3609 9.5805 27.6285 -2.3148 33.7981 -36.8568 7.1001 15.4156 49.2520 0.0000 0.0000 0.0000 22.9894 21.2107 -54.1972 -4.3837 -12.6542 38.0873 -5.8717 -19.4674 -54.2730 -3.8461 -11.9528 35.5652 2.1937 -2.1625 -16.2943 4.1544 -3.0285 -13.0056 2.8161 -1.5078 -4.7039 -2.0639 -0.5853 -7.9997 -0.5588 -0.2641 44.7308 0.0674 -0.5396 18.0530 -0.0000 0.0000 0.0000 36.5465 -39.6000 -29.7735 22.2507 -33.2592 -6.7228 -0.0000 -0.0000 10.8300 -17.8003 11.9464 -3.8023 -7.1250 0.0000 -0.0000 -37.5408 38.9103 6.8172 -0.0000 0.0000 0.0000 15.4221 -6.8773 -20.0697 -12.2722 20.2116 -2.1954 0.0000 0.0000 9.1604 21.5270 4.7671 1.8776 7.1250 -0.0000 -0.0000 33.7595 -24.0064 20.8875
0.00 0.00 0.00 -2.1475 8.3989 30.9331 0.0000 0.0000 0.0000 -23.1682 -1.9306 -12.4869 3.5034 11.4685 33.8767 -2.0402 27.2202 -23.9392 4.9317 13.3065 40.5268 0.0000 0.0000 0.0000 26.0666 16.2480 -57.4571 -5.1216 -13.5194 41.3452 -2.5650 -25.2094 -46.9245 -3.8803 -11.9993 35.7296 4.8254 -3.1839 -12.2960 3.8309 -4.3860 -13.6458 1.1739 -2.4297 -7.7827 -0.9639 3.1138 -4.5602 0.5504 4.6136 38.8688 0.9741 1.9397 13.9764 -0.0000 0.0000 0.0000 54.0096 -40.3655 -40.8744 45.4920 -51.0072 -22.6205 -0.0000 0.0000 -29.9648 -27.1271 13.1691 -6.6575 -7.1250 0.0000 -0.0000 -44.2862 38.7075 9.1456 -0.0000 0.0000 0.0000 16.0355 -8.3004 -18.3859 -11.2277 18.6365 -1.8480 0.0000 0.0000 11.8949 20.8145 5.1870 1.9684 7.1250 -0.0000 -0.0000 33.2368 -23.7114 20.7001
0.00 0.00 0.00 -4.0313 4.1573 25.1319 0.0000 0.0000 0.0000 -22.9786 0.0180 -15.6752 7.3079 15.5858 50.0296 -0.8615 17.1207 -12.4642 1.0252 6.4411 18.0697 0.0000 0.0000 0.0000 27.8626 18.0991 -61.0204 -8.2638 -16.3099 53.5074 -2.8703 -22.1436 -45.4485 -4.5694 -12.8818 38.9276 4.5843 -5.0866 -5.5438 2.3875 -6.7311 -12.4120 0.2923 -3.6598 -10.4057 -0.3168 6.6410 -3.7721 5.2496 7.9635 34.1144 2.8165 4.1243 11.4545 -0.0000 0.0000 0.0000 63.0297 -47.0589 -80.3909 43.9190 -50.2278 -21.4046 -0.0000 0.0000 -47.8158 -25.8424 16.3893 -7.7819 -7.1250 0.0000 -0.0000 -45.3680 41.5121 5.1560 -0.0000 0.0000 0.0000 22.7459 1.1234 -14.5377 -11.9536 19.7350 -2.0866 0.0000 0.0000 9.5515 18.0763 7.7931 2.5341 7.1250 -0.0000 -0.0000 30.9777 -21.6427 20.5274
0.00 0.00 0.00 -3.2214 -2.2114 16.8544 0.0000 0.0000 0.0000 -25.6910 0.0762 -11.6429 9.8917 17.3485 59.1259 1.6732 3.0681 -25.7004 3.0427 -10.7639 -31.4878 0.0000 0.0000 0.0000 28.6976 16.8683 -68.4972 -12.3343 -18.5284 67.0446 -1.1346 -22.2788 -37.8916 -3.9124 -12.0429 35.8838 3.8099 -6.3243 -1.1208 -2.7024 -8.7558 -11.0550 -4.1285 -4.8766 -12.3680 1.3228 10.7360 -3.1518 9.3959 12.7779 23.7298 3.6937 7.0175 7.2443 -0.0000 -0.0000 0.0000 43.1496 -69.8163 -100.4748 42.2158 -49.3293 -20.1041 -0.0000 0.0000 -56.0510 -19.6920 14.2700 -5.0415 -7.1250 0.0000 -0.0000 -40.0251 40.6199 5.3410 -0.0000 -0.0000 0.0000 29.3275 0.6828 1.6384 -17.5347 27.5573 -4.3318 0.0000 -0.0000 -12.5655 21.1000 5.4016 2.0803 7.1250 -0.0000 -0.0000 33.3398 -23.4891 21.0134
0.00 0.00 0.00 -1.6838 -2.2905 16.8809 0.0000 0.0000 0.0000 -27.5227 -3.8253 -8.7802 7.9025 16.0470 52.2106 2.0989 3.7439 -28.9100 5.0552 -13.4457 -41.0607 0.0000 0.0000 0.0000 26.6951 17.9194 -67.6733 -10.6408 -17.7548 61.6095 -0.2173 -23.6281 -34.5521 -4.2970 -12.5455 37.6902 1.4671 -6.6436 -0.5750 -3.6456 -9.4603 -11.7362 -3.7002 -5.0600 -13.3674 2.1926 10.9855 -2.1006 10.4243 12.8640 23.8666 3.8284 7.2088 7.0966 -0.0000 -0.0000 0.0000 20.4335 -72.2057 -81.4555 37.3080 -46.3916 -16.4627 -0.0000 0.0000 -55.4287 -20.5920 13.2185 -4.9104 -7.1250 0.0000 -0.0000 -40.1085 39.6392 6.5949 -0.0000 -0.0000 0.0000 31.7379 -1.1078 0.7009 -17.0855 26.9703 -4.1260 0.0000 -0.0000 -13.9315 21.3696 4.5639 1.7833 7.1250 -0.0000 -0.0000 33.7283 -24.2050 20.6592
0.00 0.00 0.00 0.0131 -0.9686 18.0054 0.0000 0.0000 0.0000 -29.7765 -11.0963 -2.7385 4.2766 12.5196 37.5959 2.4278 8.1440 -33.2022 5.3328 -13.7491 -42.2414 0.0000 0.0000 0.0000 21.3585 19.5511 -66.4345 -7.7528 -15.9344 51.6675 2.0838 -26.8561 -22.3711 -3.5364 -11.5165 34.0423 -0.0241 -7.1138 -2.4517 -5.4563 -10.2088 -10.6743 -5.0701 -5.4077 -11.1779 3.4703 10.4599 -4.2715 12.0341 11.5885 23.1684 4.1915 6.8660 7.2992 0.0000 0.0000 0.0000 -9.9184 -71.6755 -55.0364 32.7797 -43.1600 -13.2712 -0.0000 0.0000 -53.7294 -18.9736 14.4821 -4.9142 -7.1250 0.0000 -0.0000 -39.6269 40.8837 4.9376 0.0000 0.0000 0.0000 36.0603 -2.2468 -5.5422 -15.4978 24.8349 -3.4323 0.0000 -0.0000 -11.6518 22.0338 5.9030 2.3834 7.1250 -0.0000 -0.0000 33.7244 -22.9352 21.9286
0.00 0.00 0.00 0.2250 -0.8461 19.6565 0.0000 0.0000 0.0000 -29.8966 -14.2496 -2.2727 2.6923 10.1795 29.5598 2.4165 9.9192 -34.2110 4.6495 -12.9778 -39.2855 0.0000 0.0000 0.0000 17.5909 20.4410 -67.4980 -6.1531 -14.5751 45.5932 3.0024 -29.0991 -8.1326 -2.2997 -9.4643 27.2587 0.2775 -7.1233 -2.0958 -5.9091 -10.2937 -10.7197 -5.6665 -5.5170 -11.6262 4.0703 10.1561 -5.5937 12.2088 10.9653 22.9650 4.2009 6.6521 7.5357 0.0000 -0.0000 0.0000 -24.8894 -68.9244 -42.6645 29.3275 -40.3100 -10.9720 -0.0000 0.0000 -49.7886 -22.6952 13.4161 -5.5423 -7.1250 0.0000 -0.0000 -41.6290 39.5333 7.1296 0.0000 -0.0000 0.0000 37.4654 -3.5328 -5.1738 -15.5541 24.9124 -3.4560 0.0000 -0.0000 -12.4192 20.7534 5.3046 2.0064 7.1250 -0.0000 -0.0000 33.1693 -23.6132 20.7343
0.00 0.00 0.00 -1.0652 -3.9362 21.0238 0.0000 0.0000 0.0000 -27.0142 -15.6313 -8.7836 1.5793 7.9285 22.4970 2.0568 9.8704 -32.1104 2.6228 -10.0578 -29.1640 0.0000 0.0000 0.0000 9.5609 24.7014 -66.6213 -5.0683 -13.4603 41.1169 1.8539 -29.2185 8.2244 -1.9132 -8.6829 24.8083 0.4834 -6.3116 -0.8882 -5.9770 -9.1811 -9.9117 -5.8611 -4.9655 -11.2984 3.8156 9.1869 -6.4241 12.2442 9.6996 21.1728 4.1110 5.9848 7.1329 -0.0000 -0.0000 0.0000 -45.9731 -57.6594 -25.5752 23.3073 -34.4232 -7.3113 -0.0000 0.0000 -42.8128 -22.3501 15.2872 -6.1869 -7.1250 0.0000 -0.0000 -42.4152 41.1101 5.1690 -0.0000 -0.0000 0.0000 37.4666 -3.8728 -7.1900 -13.5301 22.0590 -2.6491 0.0000 -0.0000 -3.7475 20.6170 6.2233 2.3354 7.1250 -0.0000 -0.0000 32.8423 -22.8079 21.2078
0.00 0.00 0.00 -1.1449 -14.4591 22.8781 0.0000 0.0000 0.0000 -23.8188 -14.8051 -31.1612 3.2343 11.0650 32.4996 1.8106 11.9462 -32.1064 0.7175 -5.4129 -15.0900 0.0000 0.0000 0.0000 15.0672 23.6919 -65.5370 -5.0444 -13.4337 41.0143 -0.5591 -25.6135 21.5050 -1.5972 -7.9712 22.6266 -3.3231 -6.1240 2.4651 -5.8787 -9.4845 -10.4163 -3.2660 -4.7058 -13.2952 -0.5927 2.3776 -13.9405 15.3129 -1.5530 30.6338 5.8230 1.0589 12.6655 0.0000 -0.0000 0.0000 -38.6364 -47.4564 -48.6754 10.6946 -17.8186 -1.6813 -0.0000 0.0000 -4.0174 -25.9045 19.4197 -9.1729 -7.1250 0.0000 -0.0000 -47.3484 43.8979 1.7113 0.0000 -0.0000 0.0000 39.0850 -3.0253 -39.1464 -9.4266 15.8377 -1.3141 0.0000 0.0000 14.9914 23.9306 7.3555 3.2518 7.1250 -0.0000 -0.0000 34.3493 -21.3941 24.1301
0.00 0.00 0.00 -1.7979 -16.0782 22.8916 0.0000 0.0000 0.0000 -22.6499 -15.0065 -34.9932 3.9055 12.0336 35.8509 1.6176 13.7960 -32.4125 0.6914 -5.3157 -14.8112 0.0000 0.0000 0.0000 14.8150 24.0128 -65.0907 -5.4596 -13.8834 42.7725 -1.0040 -19.8009 21.2310 -0.8273 -5.8029 16.2136 -3.5579 -6.4318 3.6737 -4.8315 -9.9071 -10.4592 -1.7961 -4.7771 -13.8458 -3.4760 -1.6327 -15.0124 15.0559 -7.3751 34.1929 5.6840 -1.8464 15.2912 -0.0000 -0.0000 0.0000 -43.3748 -47.6410 -58.6063 10.6870 -17.8070 -1.6790 -0.0000 0.0000 -10.2891 -17.2145 13.9893 -4.2833 -7.1250 0.0000 -0.0000 -38.1089 40.6874 4.8918 -0.0000 -0.0000 0.0000 39.3679 3.1446 -78.5366 -7.7927 13.2163 -0.9041 0.0000 0.0000 28.4689 14.1654 9.9855 2.5059 7.1250 -0.0000 -0.0000 28.1590 -19.9346 19.3287
